<svg id="Badminton" enable-background="new 0 0 64 64" viewBox="0 0 64 64" xmlns="http://www.w3.org/2000/svg"><path d="m6.63528 27.66768c-.49376.07322-.9509.27433-1.33484.53036l-4.88231-9.28928c-1.02412-1.9383-.09152-4.31545 1.9748-5.06524.40235-.14621.80459-.20112 1.20693-.20112.62166 0 1.22513.16462 1.75538.45715-.31083.82289-.40224 1.73719-.27422 2.63318zm11.88585-13.82416c-.40224-.14621-.80458-.20112-1.20682-.20112-.62177 0-1.22524.16462-1.77379.45715.31083.84119.42065 1.73719.29264 2.63318l-1.55437 10.93495c.49376.07322.9509.27433 1.33495.53036l4.88231-9.28928c1.024-1.93831.0914-4.31546-1.97492-5.06524zm-8.06404-1.46286c-2.19433 0-3.87661 1.9383-3.56578 4.09603l1.59087 11.13618h3.94971l1.59087-11.13618c.0183-.16451.03661-.34744.03661-.51195-.00001-1.9383-1.59088-3.58408-3.60228-3.58408zm0 25.5089c2.50516 0 4.58979-1.92 4.8274-4.37037h-9.65492c.23773 2.45037 2.32235 4.37037 4.82752 4.37037zm3.23653-8.44809h-6.47318c-.89599 0-1.60917.73137-1.60917 1.60917v.63996h9.69152v-.63996c0-.8778-.71306-1.60917-1.60917-1.60917zm15.65275 9.27098c-.62166-.62177-1.17022-1.26173-1.68228-1.9383l-4.58979 4.58979c.8778.31083 1.70058.82278 2.37715 1.49935.69487.69487 1.18863 1.49946 1.48127 2.35896l4.62628-4.6264c-.78627-.56687-1.51775-1.18853-2.21263-1.8834zm-20.18762 13.86065c-1.06062 1.04231-1.06062 2.74289 0 3.8035l2.76119 2.7795c1.06062 1.04231 2.76119 1.04231 3.8035 0l6.52798-6.50978-6.58289-6.583zm14.99448-8.42978c-.9143-.9143-2.08462-1.35314-3.29145-1.35314-1.18863 0-2.37726.43884-3.29156 1.35314l-.60336.62177 6.58289 6.58289.60347-.62166c1.8103-1.8104 1.8103-4.75441.00001-6.583zm34.96068-35.19506c-7.04729-7.04729-19.16853-6.39338-27.01941 1.4575-7.85166 7.85166-8.50557 19.97289-1.45828 27.02019 7.04718 7.04729 19.16842 6.39327 27.02007-1.45827 7.851-7.851 8.50492-19.97224 1.45762-27.01942zm-1.82904 20.84031-3.93386-3.93353 3.2324-3.23229 2.68664 2.68664c-.4269 1.53908-1.09376 3.04903-1.98518 4.47918zm-4.28911 4.74749-4.16288-4.163 3.22526-3.22526 4.16344 4.16333c-.46161.59365-.95068 1.17435-1.49901 1.72268-.54956.54956-1.13171 1.03974-1.72681 1.50225zm-6.00308 3.04713-2.68507-2.68508 3.23229-3.23229 3.93297 3.93308c-1.43071.89109-2.94078 1.55773-4.48019 1.98429zm-12.74178-2.48507 3.83543-3.83554 3.63553 3.63553-2.73418 2.73407c-1.73251-.49274-3.34324-1.33449-4.73678-2.53406zm-4.20943-11.88039 1.83016 1.83016-1.87993 1.87993c-.14164-1.21374-.11831-2.46041.04977-3.71009zm.43739-2.14835c.42657-1.53953 1.09332-3.04992 1.98451-4.48063l3.93364 3.93375-3.23251 3.23252zm7.21103.74599 3.62884 3.62895-3.2324 3.23252-3.62895-3.62895zm5.06289-13.02325 2.68731 2.68731-3.23251 3.23252-3.93454-3.93442c1.43037-.89154 2.94055-1.5584 4.47974-1.98541zm12.73977 2.47782-3.83799 3.83821-3.62873-3.62873 2.73743-2.73742c1.72937.49209 3.33765 1.3316 4.72929 2.52794zm-7.07028 9.65636 3.23229-3.2324 3.63598 3.63598-3.2324 3.23229zm2.343 4.92874-3.22527 3.22504-3.63565-3.63576 3.22504-3.22504zm-.40358-9.45402-3.2324 3.23252-3.62884-3.62873 3.23252-3.23252zm-4.52517 4.52539-3.22504 3.22504-3.62873-3.62895 3.22482-3.22482zm-6.45733 9.0433 3.2323-3.2324 3.63564 3.63564-3.2324 3.23229zm18.4971-8.63983 1.88239-1.88228c.14163 1.21519.11842 2.46331-.05034 3.71433zm1.4441-4.02974-2.73697 2.73686-3.63598-3.63598 3.83844-3.83855c1.19989 1.39377 2.04165 3.00473 2.53451 4.73767zm-10.70437-8.99665-1.88306 1.88306-1.83272-1.83272c1.25158-.16875 2.50014-.19219 3.71578-.05034zm-11.86543 3.53732 4.16411 4.164-3.22482 3.22482-4.16356-4.16366c.46239-.59499.95258-1.17702 1.50191-1.72636.54813-.54812 1.12883-1.0373 1.72236-1.4988zm-6.32039 17.23425 2.7343-2.7343 3.62895 3.62895-3.83509 3.8352c-1.19656-1.39187-2.03619-3.00026-2.52816-4.72985zm10.70504 8.99531 1.87949-1.87938 1.82971 1.82971c-1.24935.16808-2.49579.19107-3.7092.04967z"/></svg>