<svg id="Layer_1" enable-background="new 0 0 512 512" height="512" viewBox="0 0 512 512" width="512" xmlns="http://www.w3.org/2000/svg"><g id="_x32_6_Bar_counter"><path d="m162.87 317.523h-110.811c-1.279 0-2.318-1.041-2.318-2.318v-20.689c0-10.974 8.928-19.902 19.902-19.902h75.646c10.974 0 19.902 8.928 19.902 19.902v20.689c-.002 1.279-1.042 2.318-2.321 2.318zm-30.245 132.892-15.389-21.408c-.433-.601-.666-1.326-.666-2.067v-102.32h-18.174v102.32c0 .742-.233 1.465-.666 2.067l-15.388 21.408zm181.1-135.21v-20.689c0-10.974-8.928-19.902-19.902-19.902h-75.647c-10.974 0-19.902 8.928-19.902 19.902v20.689c0 1.279 1.041 2.318 2.321 2.318h110.811c1.279 0 2.319-1.039 2.319-2.318zm-32.563 135.21-15.389-21.408c-.433-.601-.666-1.326-.666-2.067v-102.32h-18.177v102.32c0 .742-.233 1.465-.666 2.067l-15.388 21.408zm148.535 0-15.389-21.408c-.433-.601-.666-1.326-.666-2.067v-102.32h-18.175v102.32c0 .742-.233 1.465-.666 2.067l-15.388 21.408zm-415.473-226.333v211.089c0 8.415 6.828 15.244 15.244 15.244h44.151l17.694-24.617v-101.191h-39.254c-5.184 0-9.402-4.218-9.402-9.402v-20.689c0-14.88 12.106-26.985 26.985-26.985h75.646c14.88 0 26.985 12.106 26.985 26.985v20.689c0 5.184-4.218 9.402-9.402 9.402h-39.216v101.191l17.693 24.617h80.806l17.692-24.617v-101.191h-39.253c-5.185 0-9.403-4.218-9.403-9.402v-20.689c0-14.88 12.106-26.985 26.985-26.985h75.647c14.88 0 26.985 12.106 26.985 26.985v20.689c0 5.184-4.218 9.402-9.403 9.402h-39.214v101.191l17.694 24.617h80.805l17.694-24.617v-101.191h-39.254c-5.184 0-9.402-4.218-9.402-9.402v-20.689c0-14.88 12.106-26.985 26.985-26.985h75.646c14.88 0 26.985 12.106 26.985 26.985v20.689c0 5.184-4.218 9.402-9.402 9.402h-39.215v101.191l17.694 24.617h44.111c8.416 0 15.244-6.828 15.244-15.244v-211.089c-2.233.154-481.127.167-483.551 0zm448.036 91.123v-20.689c0-10.974-8.928-19.902-19.902-19.902h-75.646c-10.974 0-19.902 8.928-19.902 19.902v20.689c0 1.279 1.041 2.318 2.318 2.318h110.812c1.279 0 2.32-1.039 2.32-2.318zm33.022-131.5h-478.565c-9.209 0-16.718 7.509-16.718 16.718 0 9.18 7.509 16.688 16.718 16.688h478.565c9.209 0 16.718-7.509 16.718-16.688 0-9.209-7.509-16.718-16.718-16.718zm-402.799-40.999v.028c-1.048 1.048-14.061 11.561-18.502 12.722v21.165h-7.084v-21.194c-4.764-1.173-5.983-3.431-16.661-11.107-5.27-3.939-8.076-10.483-7.282-17.029l6.885-59.247c.453-3.683 3.57-6.461 7.282-6.461h26.606c3.712 0 6.828 2.776 7.282 6.461 9.435 81.192 6.181 53.189 6.885 59.247.724 5.984-1.573 11.76-5.411 15.415zm-5.185-45.306-3.315-28.533c-.028-.113-.141-.198-.256-.198h-26.605c-.113 0-.227.085-.256.226l-3.314 28.505zm374.465 46.92c-10.876 7.834-11.836 9.893-16.66 11.136v21.165h-7.084v-21.194c-4.739-1.185-5.824-3.337-16.632-11.107-5.27-3.939-8.076-10.483-7.282-17.029l6.885-59.247c.453-3.683 3.57-6.461 7.282-6.461h26.606c3.712 0 6.829 2.776 7.282 6.461 9.435 81.192 6.181 53.189 6.885 59.247.739 6.424-1.57 12.265-7.282 17.029zm-3.316-46.92-3.343-28.533c0-.113-.113-.198-.227-.198h-26.606c-.113 0-.227.085-.256.226l-3.314 28.505zm-118.181 44.937c-1.391 1.389-14.229 11.905-18.871 13.119v21.165h-7.084v-21.194c-4.717-1.179-5.749-3.278-16.661-11.107-5.27-3.939-8.047-10.483-7.253-17.029 9.436-81.197 6.181-53.187 6.886-59.247.453-3.683 3.57-6.461 7.282-6.461h26.606c3.683 0 6.828 2.776 7.253 6.461 9.477 81.215 6.205 53.175 6.913 59.247.624 5.422-1.041 10.747-5.071 15.046zm-5.554-44.937-3.316-28.533c0-.113-.113-.198-.226-.198h-26.606c-.141 0-.226.085-.254.226l-3.316 28.505zm-118.125 44.88c-2.69 2.687-14.598 12.05-18.899 13.176v21.165h-7.084v-21.194c-4.764-1.173-5.983-3.431-16.661-11.107-5.271-3.939-8.076-10.483-7.253-17.029 9.397-81.197 6.155-53.187 6.856-59.247.453-3.683 3.598-6.461 7.282-6.461h26.606c3.712 0 6.828 2.776 7.282 6.461.704 6.058-2.55-21.945 6.886 59.247.624 5.226-.96 10.662-5.015 14.989zm-5.582-44.88-3.316-28.533c-.028-.113-.113-.198-.254-.198h-26.606c-.113 0-.226.085-.226.226l-3.316 28.505z"/></g></svg>