<svg id="Layer_1" viewBox="0 0 64 64" xmlns="http://www.w3.org/2000/svg" data-name="Layer 1"><path d="m58.492 56.325-2.143-1.58c-1.043-.767-2.867-.768-3.902 0-1.69 1.233-4.604 1.237-6.294.004-1.019-.755-2.929-.737-3.915-.005-1.662 1.229-4.592 1.24-6.285.005-1.009-.75-2.921-.745-3.914-.005-.85.62-1.965.958-3.147.958-.125 0-.584-.004-1.146-.014.003.103.017.203.017.307v4.007h30.729v-3.675z"/><path d="m52.447 48.854c-1.69 1.255-4.6 1.263-6.301 0-1.011-.735-2.906-.729-3.916.006-.826.623-1.946.972-3.138.972-1.18 0-2.298-.347-3.146-.978-.994-.724-2.906-.729-3.915.005-1.684 1.25-4.589 1.254-6.286-.005-.293-.213-.664-.367-1.067-.463 1.398 1.499 2.388 3.308 2.828 5.292.665.014 1.245.019 1.386.019.762 0 1.458-.202 1.961-.568.832-.618 1.949-.962 3.139-.962s2.307.344 3.146.967c.979.715 2.943.712 3.909-.001 1.668-1.238 4.602-1.253 6.291.001.981.715 2.938.714 3.924-.005 1.749-1.294 4.506-1.296 6.272.002l.958.706v-3.405l-2.144-1.581c-1.042-.767-2.866-.768-3.901 0z"/><path d="m17.133 35.84c-.045.421-.35.768-.761.866-.078.019-.156.027-.233.027-.333 0-.651-.167-.838-.455-.79-1.215-1.375-2.42-1.762-3.611-1.541 3.855-2.23 7.677-2.054 11.408h2.905c1.479 0 2.898.224 4.229.62-1.137-3.484-1.414-7.211-1.246-10.733-.103.719-.185 1.362-.24 1.877z"/><path d="m9.495 46.075v13.925h16.269v-4.007c0-5.469-5.103-9.918-11.374-9.918z"/><path d="m29.317 21.345c-.827-.787-1.851-1.367-3.044-1.725l-2.228-.669 1.757 1.525c2.361 2.051 4.099 5.117 5.14 7.328l1.177 2.5-.226-2.753c-.223-2.704-1.089-4.792-2.576-6.206z"/><path d="m9.344 13.831c3.5 0 6.622.735 9.276 2.184l1.921 1.049-1.275-1.779c-1.169-1.631-2.553-2.715-4.113-3.221-1.951-.631-4.179-.354-6.624.825l-2.08 1.002 2.308-.052c.191-.004.387-.007.586-.007z"/><path d="m22.991 21.401-.094 2.416c-.13 3.327-.966 7.155-1.645 9.78l-.482 1.864 1.328-1.395c1.417-1.488 2.265-3.17 2.521-5 .235-1.683-.02-3.503-.757-5.411l-.872-2.255z"/><path d="m20.955 13.718.974 2.213-.017-2.418c-.014-2.045-.445-3.832-1.281-5.311-.91-1.609-2.315-2.863-4.179-3.727l-1.746-.809 1.131 1.557c1.594 2.195 3.776 5.451 5.117 8.496z"/><path d="m30.22 15.195c-1.637-.16-3.336.288-5.055 1.315l-1.878 1.123 2.18-.196c3.197-.287 6.548.375 9.911 1.934l2.101.974-1.512-1.754c-1.772-2.056-3.706-3.199-5.746-3.396z"/><path d="m32.316 8.65 1.664-.98-1.93.05c-3.915.102-6.893 2.216-8.614 6.116l-.973 2.204 1.77-1.635c2.443-2.258 5.744-4.375 8.083-5.754z"/><path d="m21.861 19.27-.92 3.152c-.868 2.971-1.932 7.532-2.077 12.385l-.121 4.064 1.102-3.915c.507-1.801 2.154-8.018 2.075-12.404l-.06-3.283z"/><path d="m17.636 22.363c-1.436 1.454-2.395 3.022-2.85 4.661-.495 1.781-.388 3.662.32 5.591l.662 1.807.301-1.901c.424-2.678 1.183-6.521 2.389-9.625l.875-2.251-1.697 1.719z"/><path d="m19.3 17.972-2.303-.274c-1.156-.137-2.404-.026-3.481.371-1.92.707-3.542 2.274-4.82 4.659l-1.305 2.435 2.076-1.823c1.833-1.609 4.643-3.726 7.623-4.668l2.211-.699z"/></svg>