<svg clip-rule="evenodd" fill-rule="evenodd" height="173.397mm" image-rendering="optimizeQuality" shape-rendering="geometricPrecision" text-rendering="geometricPrecision" viewBox="0 0 173.397 173.397" width="173.397mm" xmlns="http://www.w3.org/2000/svg"><g id="Layer_x0020_1"><g id="_454086856"><path id="_253643584" d="m12.444 21.935.0005 12.3289h148.509v-12.3292c-17.2589 3.3754-27.2064.6438-38.6564-2.4997-9.1263-2.5073-19.4754-5.3486-35.6-5.3486-16.1202-.0002-26.4701 2.8416-35.5996 5.3486-11.4467 3.1429-21.3933 5.8752-38.6533 2.5z"/><path id="_253643152" d="m55.5026 42.8435.0009 23.0216c.0001 3.068-2.8302 5.5682-6.308 5.5681-3.4777 0-6.309-2.4973-6.309-5.5676.0007-4.1549 4.9429-6.7725 9.0523-5.0126l.0004-8.6354-12.3247 3.3019v15.819c0 3.0678-2.8276 5.5682-6.3094 5.5681-3.4763 0-6.3051-2.4975-6.3051-5.5678.0008-4.1554 4.9386-6.772 9.0495-5.0127l.0006-12.1428c-.0004-.0225-.0004-.0449 0-.0673l.0004-7.0155c0-.8067.5401-1.5125 1.3198-1.7213l15.8876-4.2574c1.1288-.3011 2.2447.5535 2.2447 1.7217zm-34.4362-5.0156v42.3114h41.1808c.6584-9.1199 6.3285-16.8733 14.2618-20.5131l1.0476-.4513 1.6161-.5863c.0433-.0068 1.8524-.5645 2.2321-.6059l1.1461-.2245 1.1644-.1704 1.1812-.115 1.8004-.0654c.9976 0 1.9931.0599 2.9826.1803l1.1647.1703 1.1464.2245.566.1321c.3748.0922.7463.1932 1.1132.3022l.0033.0009c9.5848 2.8487 16.7327 11.4122 17.477 21.7219l41.1814-.0003v-42.3114h-131.265zm105.881 16.4115c-.0029-.0584-.0028-.1164 0-.174l.0003-6.9649c0-.8067.5406-1.5125 1.32-1.7213l15.8876-4.2574c1.1296-.3021 2.2418.5523 2.2418 1.7217l.0011 23.0216c.0001 3.0677-2.8273 5.5682-6.3082 5.5681-3.4777 0-6.3061-2.4973-6.3061-5.5676.0007-4.1577 4.9415-6.7712 9.0495-5.0132l.0004-8.6348-12.3221 3.3019v15.819c0 3.0679-2.8302 5.5682-6.3078 5.5681-3.4777 0-6.3093-2.4975-6.3093-5.5678.0008-4.1533 4.9409-6.773 9.0523-5.0122z"/><path id="_253643536" d="m51.9395 45.1654-12.325 3.3022v3.3619l12.3248-3.3023z"/><path id="_253643440" d="m49.1955 63.8618c-1.4882 0-2.745.918-2.745 2.0038.001 1.0862 1.256 2.0038 2.7441 2.0038 1.4892-.0002 2.744-.9175 2.744-2.0038.0009-1.0863-1.2559-2.0035-2.7431-2.0038z"/><path id="_253642672" d="m33.3051 69.3345c-1.4841 0-2.7411.9181-2.7411 2.0043.0012 1.0856 1.2561 2.0039 2.7411 2.0039 1.4882-.0001 2.7442-.9177 2.7442-2.0039.0012-1.0862-1.2562-2.0038-2.7442-2.0043z"/><path id="_253642576" d="m142.834 45.1654-12.322 3.3022v3.3619l12.322-3.3016z"/><path id="_253642480" d="m140.089 63.8618c-1.4848.0005-2.741.9183-2.741 2.0038.001 1.0862 1.2561 2.0038 2.741 2.0038 1.4895-.0002 2.7442-.9175 2.7442-2.0038.0011-1.086-1.2554-2.003-2.7431-2.0038z"/><path id="_253642408" d="m124.203 69.3345c-1.4878.0005-2.744.9184-2.744 2.0043.0012 1.0856 1.2558 2.0039 2.744 2.0039 1.4881-.0001 2.7441-.9177 2.7441-2.0039.001-1.0859-1.2553-2.0033-2.7428-2.0043z"/><path id="_253642936" d="m106.616 75.4267h-18.1365l.0004 10.8921 19.168-.0003v-4.3972c0-2.2576-.3445-4.3516-1.0319-6.4946z"/><path id="_253642912" d="m88.479 61.0473.0003 10.8156 16.5908-.0002c-2.356-4.1995-5.8353-7.3824-10.277-9.2632-1.9932-.844-4.1575-1.3702-6.3141-1.5522z"/><path id="_253642456" d="m84.9162 61.0471c-6.9944.593-13.2157 4.6757-16.59 10.8161l16.5897-.0002z"/><path id="_253642840" d="m84.9158 75.4267h-18.1348c-.6872 2.1424-1.0317 4.2388-1.0317 6.4949v4.3975l19.1661-.0003z"/><path id="_454085368" d="m88.4799 89.8825.0003 10.8915h19.1678v-10.8915z"/><path id="_454085392" d="m84.9153 89.8825h-19.1659l.0001 10.8925 19.1655-.001z"/><path id="_454085728" d="m154.113 83.7036-42.9011-.0003v75.6075h49.7415v-68.767c0-3.7715-3.069-6.8402-6.8404-6.8402zm-27.1071 9.2094 27.748-.0004c.9763 0 1.7817.7907 1.7817 1.7825l.0003 21.0027c0 .9843-.7987 1.7824-1.782 1.782h-9.5152l-.0476.0007-.0504-.0007h-27.6806c-1.0252.0076-1.8302-.7735-1.8302-1.7871l.0007-20.9981c0-.9836.7976-1.7815 1.7813-1.7815l9.5269-.0001c.0223-.0005.0447-.0004.0671 0zm-9.594 32.6212 37.342-.0006c.9843 0 1.7817.7985 1.7817 1.7826l.0003 21.0026c0 .9843-.7987 1.7825-1.782 1.782h-9.5152l-.0476.0007-.0504-.0007h-27.6806c-1.0217.0075-1.8302-.7693-1.8302-1.7869l.0007-20.9983c0-.9836.7976-1.7814 1.7813-1.7814z"/><path id="_454085080" d="m88.479 115.308.0012 44.0024h7.0878v-35.3135c0-4.28-3.0487-7.8618-7.089-8.6889z"/><path id="_454085512" d="m84.9191 115.308c-4.0394.8258-7.0887 4.4085-7.0887 8.69l.0011 35.313h7.0866z"/><path id="_454085656" d="m86.6983 104.338-.0014.0004zm-20.9488 0 .0005 54.9726h8.5165l.001-35.3135c0-6.8559 5.5768-12.4327 12.4294-12.4327 6.8565-.0002 12.434 5.5775 12.434 12.4332l.001 35.313h8.5159v-54.9726h-20.9202-.0293l-.0014.0004z"/><path id="_454085176" d="m152.972 102.91-5.009 11.006h5.009z"/><path id="_454085320" d="m146.64 96.4766-7.937 17.4394h5.342l7.937-17.4394z"/><path id="_454088920" d="m137.381 96.4766-7.937 17.4394h5.341l7.938-17.4394z"/><path id="_454088944" d="m128.121 96.4766-7.936 17.4394h5.34l7.938-17.4394z"/><path id="_454088368" d="m119.195 96.4766v11.0054l5.009-11.0054z"/><path id="_454088272" d="m152.972 135.531-5.01 11.006h5.01z"/><path id="_454088488" d="m146.64 129.098-7.937 17.439h5.341l7.938-17.439z"/><path id="_454088680" d="m137.381 129.098-7.937 17.439h5.341l7.938-17.439z"/><path id="_454088872" d="m128.121 129.098-7.937 17.439h5.341l7.938-17.439z"/><path id="_454088632" d="m119.195 129.098v11.005l5.009-11.005z"/><path id="_454088608" d="m25.4365 96.4766h-5.0106v11.0074z"/><path id="_454088152" d="m29.3529 96.4766-7.937 17.4394h5.3417l7.9383-17.4394z"/><path id="_454087624" d="m38.6126 96.4766-7.9373 17.4394h5.3417l7.9384-17.4394z"/><path id="_454087504" d="m47.8721 96.4766-7.9374 17.4394h5.3421l7.9381-17.4394z"/><path id="_454087432" d="m54.2046 102.908-5.0104 11.008h5.0104z"/><path id="_454087648" d="m54.2046 135.529-5.0107 11.008h5.0107z"/><path id="_454087816" d="m47.8721 129.098-7.9377 17.439h5.342l7.9385-17.439z"/><path id="_454087888" d="m38.6126 129.098-7.9376 17.439h5.3418l7.9386-17.439z"/><path id="_454087960" d="m29.3529 129.098-7.9373 17.439h5.3418l7.9386-17.439z"/><path id="_454087744" d="m25.4365 129.098h-5.0106v11.007z"/><path id="_454086640" d="m55.9866 117.48-.0012.0004zm-9.6134 0h-27.6818c-1.0167.0075-1.8297-.7702-1.8297-1.7816l.0002-21.0036c0-.9836.7981-1.7815 1.782-1.7815l9.527-.0001c.0223-.0005.0447-.0004.0671 0l27.7486-.0004c.9943 0 1.7888.8159 1.7808 1.7941l.0012 20.9911c0 .9839-.7987 1.7818-1.782 1.7824-.0004 0-.0008 0-.0012 0l-9.5143-.0004-.0475.0007zm-33.9292-26.9356.0005 68.7666h49.7408l.0005-56.6409.0002-18.9666h-42.9016c-3.7714 0-6.8404 3.069-6.8404 6.8409zm43.5426 59.5566-.0012.0005zm-18.8223.0007-.0013.0004zm-18.5204-24.5673 37.3427-.0006c.9995 0 1.7887.8209 1.7808 1.7942l.0012 20.991c0 .9839-.7987 1.7819-1.782 1.7825-.0004 0-.0008 0-.0012 0l-9.5618.0002-.0504-.0007-9.2089.0007-.0013.0004-.0491-.0011h-18.4225c-1.0163.0075-1.8297-.7689-1.8297-1.7815l.0002-21.0037c0-.9836.7981-1.7814 1.782-1.7814z"/></g></g></svg>