<svg enable-background="new 0 0 32 32" viewBox="0 0 32 32" xmlns="http://www.w3.org/2000/svg"><g id="Guides"/><g id="_x32_0"/><g id="_x31_9"/><g id="_x31_8"/><g id="_x31_7"/><g id="_x31_6"/><g id="_x31_5"><path d="m29 26h-1v-12c0-.5527-.4473-1-1-1h-2v-10c0-.5527-.4473-1-1-1h-4c-.5527 0-1 .4473-1 1 0-.5527-.4473-1-1-1h-4c-.5527 0-1 .4473-1 1 0-.5527-.4473-1-1-1h-4c-.5527 0-1 .4473-1 1v10h-2c-.5527 0-1 .4473-1 1v12h-1c-.5527 0-1 .4473-1 1 0 1.6543 1.3457 3 3 3h22c1.6543 0 3-1.3457 3-3 0-.5527-.4473-1-1-1zm-8-18h2v10h-2zm0-4h2v2h-2zm-6 4h2v10h-2zm0-4h2v2h-2zm-6 4h2v10h-2zm0-4h2v2h-2zm-3 11h1v4c0 .5527.4473 1 1 1h4c.5527 0 1-.4473 1-1 0 .5527.4473 1 1 1h4c.5527 0 1-.4473 1-1 0 .5527.4473 1 1 1h4c.5527 0 1-.4473 1-1v-4h1v11h-20z"/></g><g id="_x31_4"/><g id="_x31_3"/><g id="_x31_2"/><g id="_x31_1"/><g id="_x31_0"/><g id="_x30_9"/><g id="_x30_8"/><g id="_x30_7"/><g id="_x30_6"/><g id="_x30_5"/><g id="_x30_4"/><g id="_x30_3"/><g id="_x30_2"/><g id="_x30_1"/></svg>