<svg id="Layer_1" viewBox="0 0 64 64" xmlns="http://www.w3.org/2000/svg" data-name="Layer 1"><path d="m38.085 38.373s-.003-.005-.004-.007c-.001-.005 0-.009 0-.013-.634-2.839-1.906-5.098-3.033-6.655-.39-.538-.721-1.104-1.003-1.687h-5.029c-.283.583-.613 1.149-1.003 1.687-2.681 3.7-6.189 11.355.044 21.389h6.947c3.605-5.802 3.949-10.807 3.082-14.713z"/><path d="m29.811 22.924h3.437l.523-2.582c.138-.676-.033-1.37-.47-1.904-.873-1.067-2.671-1.068-3.544 0-.436.534-.607 1.228-.471 1.903l.525 2.582z"/><path d="m41.205 38.812c-.323 0-.645.023-.965.066.635 3.711.243 8.225-2.442 13.342 1.04.569 2.199.879 3.407.879 3.939 0 7.144-3.205 7.144-7.144s-3.204-7.144-7.144-7.144z"/><path d="m33.306 28.011c-.221-.858-.339-1.742-.339-2.638 0-.15.016-.299.023-.449h-2.922c.006.15.023.299.023.449 0 .896-.117 1.78-.339 2.638z"/><path d="m57.064 22.693c0-.369.2-.691.497-.865l-25.562-15.055-25.561 15.056c.297.173.497.496.497.865v34.694h50.129zm-15.859 32.406c-1.559 0-3.053-.405-4.394-1.146-.138.225-.272.449-.419.676-.185.285-.5.457-.84.457h-8.047c-.34 0-.655-.172-.84-.457-7.276-11.259-3.295-19.936-.273-24.105 1.111-1.533 1.698-3.314 1.698-5.151 0-.58-.059-1.16-.173-1.725l-.591-2.907c-.258-1.267.063-2.566.882-3.567.817-1 2.027-1.575 3.32-1.575s2.502.574 3.32 1.574c.817 1.001 1.139 2.301.881 3.568l-.589 2.907c-.115.565-.174 1.146-.174 1.726 0 1.837.587 3.618 1.698 5.151 1.121 1.547 2.374 3.717 3.135 6.407.465-.072.933-.119 1.404-.119 5.042 0 9.144 4.102 9.144 9.144s-4.102 9.144-9.144 9.144z"/></svg>