<svg id="Layer_1" enable-background="new 0 0 480 480" height="512" viewBox="0 0 480 480" width="512" xmlns="http://www.w3.org/2000/svg"><g><path d="m480 445v11c0 13.23-10.77 24-24 24h-432c-13.23 0-24-10.77-24-24v-11c0-13.23 10.77-24 24-24h432c13.23 0 24 10.77 24 24z"/><path d="m95 186v211c0 4.418-3.582 8-8 8h-39c-4.418 0-8-3.582-8-8v-211c0-4.418 3.582-8 8-8h39c4.418 0 8 3.582 8 8z"/><path d="m440 186v211c0 4.418-3.582 8-8 8h-39c-4.418 0-8-3.582-8-8v-211c0-4.418 3.582-8 8-8h39c4.418 0 8 3.582 8 8z"/><path d="m283 24v8c0 4.418-3.582 8-8 8h-70c-4.418 0-8-3.582-8-8v-8c0-13.255 10.745-24 24-24h38c13.255 0 24 10.745 24 24z"/><path d="m369 340v8c0 2.209-1.791 4-4 4h-37v49c0 2.209-1.791 4-4 4h-8c-2.209 0-4-1.791-4-4v-49h-64v49c0 2.209-1.791 4-4 4h-8c-2.209 0-4-1.791-4-4v-49h-64v49c0 2.209-1.791 4-4 4h-8c-2.209 0-4-1.791-4-4v-49h-37c-2.209 0-4-1.791-4-4v-8c0-2.209 1.791-4 4-4h250c2.209 0 4 1.791 4 4z"/><path d="m459.3 109.47c-58.105-3.43-112.248-21.34-158.102-52.104-1.319-.885-2.866-1.366-4.454-1.366h-113.487c-1.588 0-3.135.481-4.454 1.366-45.855 30.764-99.998 48.674-158.103 52.104-11.61.69-20.7 10.33-20.7 21.96v8.57c0 12.15 9.85 22 22 22h436c12.15 0 22-9.85 22-22v-8.57c0-11.63-9.09-21.27-20.7-21.96zm-149.51 4.37c-.998 4.174-5.157 6.96-9.63 5.95-.68-.17-1.36-.33-2.03-.51-4.28-1.1-6.85-5.46-5.75-9.74s5.47-6.85 9.74-5.75c.57.15 1.15.29 1.72.42 4.3 1.02 6.96 5.33 5.95 9.63zm-57.13-37.56c3.71-2.4 8.66-1.33 11.06 2.38 2.97 4.6 6.9 8.81 11.68 12.5 6.012 4.668 2.708 14.33-4.9 14.33-1.71 0-3.43-.54-4.89-1.67-6.21-4.81-11.37-10.35-15.33-16.48-2.4-3.71-1.33-8.66 2.38-11.06zm-36.38 2.38c2.4-3.71 7.35-4.78 11.06-2.38s4.78 7.35 2.38 11.06c-10.15 15.72-27.87 27.24-49.88 32.45-4.471 1.01-8.631-1.774-9.63-5.95-1.01-4.3 1.65-8.61 5.95-9.63 17.97-4.25 32.22-13.32 40.12-25.55z"/></g></svg>