<svg id="Layer_1" enable-background="new 0 0 100 100" height="512" viewBox="0 0 100 100" width="512" xmlns="http://www.w3.org/2000/svg"><g><g><path d="m65 51.2c-.3 0-.6-.3-.6-.6v-2.4c0-.3.3-.6.6-.6s.6.3.6.6v2.4c0 .3-.3.6-.6.6z"/><path d="m62.8 51.8c-.2 0-.4-.1-.5-.3l-1.3-2.2c-.2-.3-.1-.7.2-.8.3-.2.7-.1.8.2l1.2 2.1c.2.3.1.7-.2.8 0 .1-.1.2-.2.2z"/><path d="m61.2 53.4c-.1 0-.2 0-.3-.1l-2.1-1.2c-.3-.2-.4-.5-.2-.8s.5-.4.8-.2l2.1 1.2c.3.2.4.5.2.8-.1.2-.3.3-.5.3z"/><path d="m60.6 55.6h-2.4c-.3 0-.6-.3-.6-.6s.3-.6.6-.6h2.4c.3 0 .6.3.6.6s-.3.6-.6.6z"/><path d="m59.1 59c-.2 0-.4-.1-.5-.3-.2-.3-.1-.7.2-.8l2.1-1.2c.3-.2.7-.1.8.2.2.3.1.7-.2.8l-2.1 1.2c-.1.1-.2.1-.3.1z"/><path d="m61.6 61.5c-.1 0-.2 0-.3-.1-.3-.2-.4-.5-.2-.8l1.2-2.1c.2-.3.5-.4.8-.2s.4.5.2.8l-1.2 2.1c-.1.2-.3.3-.5.3z"/><path d="m65 62.5c-.3 0-.6-.3-.6-.6v-2.4c0-.3.3-.6.6-.6s.6.3.6.6v2.4c0 .3-.3.6-.6.6z"/><path d="m68.4 61.5c-.2 0-.4-.1-.5-.3l-1.2-2.1c-.2-.3-.1-.7.2-.8.3-.2.7-.1.8.2l1.2 2.1c.2.3.1.7-.2.8 0 .1-.2.1-.3.1z"/><path d="m71 59c-.1 0-.2 0-.3-.1l-2.1-1.2c-.3-.2-.4-.5-.2-.8s.5-.4.8-.2l2.1 1.2c.3.2.4.5.2.8-.1.2-.3.3-.5.3z"/><path d="m71.9 55.6h-2.4c-.3 0-.6-.3-.6-.6s.3-.6.6-.6h2.4c.3 0 .6.3.6.6s-.3.6-.6.6z"/><path d="m68.8 53.4c-.2 0-.4-.1-.5-.3-.2-.3-.1-.7.2-.8l2.1-1.2c.3-.2.7-.1.8.2.2.3.1.7-.2.8l-2.1 1.2c0 .1-.2.1-.3.1z"/><path d="m67.2 51.8c-.1 0-.2 0-.3-.1-.3-.2-.4-.5-.2-.8l1.2-2.1c.2-.3.5-.4.8-.2s.4.5.2.8l-1.2 2.1c-.1.1-.3.3-.5.3z"/><path d="m65 57.6c-1.5 0-2.7-1.2-2.7-2.7s1.2-2.7 2.7-2.7 2.7 1.2 2.7 2.7-1.2 2.7-2.7 2.7zm0-4c-.8 0-1.4.6-1.4 1.4s.6 1.4 1.4 1.4 1.4-.6 1.4-1.4-.6-1.4-1.4-1.4z"/></g><g><path d="m5.6 59.2c-.3.3-.8.3-1 0l-1.2-1.2c-.3-.3-.3-.7 0-1 .3-.3.7-.3 1 0l1.2 1.2c.3.2.3.7 0 1z"/><path d="m9.5 63.1c-.3.3-.8.3-1 0l-1.2-1.2c-.3-.3-.3-.7 0-1 .3-.3.7-.3 1 0l1.2 1.2c.3.3.3.7 0 1z"/><path d="m7.3 59.2c-.3-.3-.3-.8 0-1l1.2-1.2c.3-.3.7-.3 1 0 .3.3.3.7 0 1l-1.2 1.2c-.3.3-.7.3-1 0z"/><path d="m3.4 63.1c-.3-.3-.3-.8 0-1l1.2-1.2c.3-.3.7-.3 1 0 .3.3.3.7 0 1l-1.2 1.2c-.3.3-.7.3-1 0z"/><circle cx="6.4" cy="60" r=".6"/></g><g><path d="m93.6 5c-.3.3-.8.3-1 0l-1.2-1.2c-.3-.3-.3-.7 0-1 .3-.3.7-.3 1 0l1.2 1.2c.3.3.3.7 0 1z"/><path d="m97.5 8.9c-.3.3-.8.3-1 0l-1.2-1.2c-.3-.3-.3-.7 0-1 .3-.3.7-.3 1 0l1.2 1.2c.3.3.3.7 0 1z"/><path d="m95.3 5c-.3-.3-.3-.8 0-1l1.2-1.2c.3-.3.7-.3 1 0 .3.3.3.7 0 1l-1.2 1.2c-.3.3-.7.3-1 0z"/><path d="m91.4 9c-.3-.3-.3-.8 0-1l1.2-1.2c.3-.3.7-.3 1 0 .3.3.3.7 0 1l-1.2 1.2c-.3.2-.7.2-1 0z"/><circle cx="94.4" cy="5.9" r=".6"/></g><g><path d="m14.5 5c-.3.3-.8.3-1 0l-1.2-1.2c-.3-.3-.3-.7 0-1 .3-.3.7-.3 1 0l1.2 1.2c.3.3.3.7 0 1z"/><path d="m18.5 8.9c-.3.3-.8.3-1 0l-1.2-1.2c-.3-.3-.3-.7 0-1 .3-.3.7-.3 1 0l1.2 1.2c.2.3.2.7 0 1z"/><path d="m16.3 5c-.3-.3-.3-.8 0-1l1.2-1.2c.3-.3.7-.3 1 0 .3.3.3.7 0 1l-1.2 1.2c-.3.3-.8.3-1 0z"/><path d="m12.4 9c-.3-.3-.3-.8 0-1l1.2-1.2c.3-.3.7-.3 1 0 .3.3.3.7 0 1l-1.3 1.2c-.2.2-.7.2-.9 0z"/><circle cx="15.4" cy="5.9" r=".6"/></g><g><path d="m93.6 51.3c-.3.3-.8.3-1 0l-1.2-1.2c-.3-.3-.3-.7 0-1 .3-.3.7-.3 1 0l1.2 1.2c.3.2.3.7 0 1z"/><path d="m97.5 55.2c-.3.3-.8.3-1 0l-1.2-1.2c-.3-.3-.3-.7 0-1 .3-.3.7-.3 1 0l1.2 1.2c.3.3.3.7 0 1z"/><path d="m95.3 51.3c-.3-.3-.3-.8 0-1l1.2-1.2c.3-.3.7-.3 1 0 .3.3.3.7 0 1l-1.2 1.2c-.3.3-.7.3-1 0z"/><path d="m91.4 55.2c-.3-.3-.3-.8 0-1l1.2-1.2c.3-.3.7-.3 1 0 .3.3.3.7 0 1l-1.2 1.2c-.3.3-.7.3-1 0z"/><circle cx="94.4" cy="52.1" r=".6"/></g><g><path d="m43.7 41.2c-1.7 0-3.2-1.4-3.2-3.2 0-1.7 1.4-3.2 3.2-3.2s3.2 1.4 3.2 3.2c-.1 1.8-1.5 3.2-3.2 3.2zm0-4.8c-.9 0-1.7.8-1.7 1.7s.8 1.7 1.7 1.7 1.7-.8 1.7-1.7c-.1-1-.8-1.7-1.7-1.7z"/></g><g><path d="m94.4 32c-1.7 0-3.2-1.4-3.2-3.2 0-1.7 1.4-3.2 3.2-3.2s3.2 1.4 3.2 3.2-1.4 3.2-3.2 3.2zm0-4.8c-.9 0-1.7.8-1.7 1.7s.8 1.7 1.7 1.7 1.7-.8 1.7-1.7c0-1-.7-1.7-1.7-1.7z"/></g><g><path d="m53.9 9.7c-1.7 0-3.2-1.4-3.2-3.2 0-1.7 1.4-3.2 3.2-3.2s3.1 1.5 3.1 3.2-1.4 3.2-3.1 3.2zm0-4.9c-.9 0-1.7.8-1.7 1.7s.8 1.7 1.7 1.7 1.7-.8 1.7-1.7c-.1-.9-.8-1.7-1.7-1.7z"/></g><g><path d="m5.2 24.6c-1.7 0-3.2-1.4-3.2-3.2 0-1.7 1.4-3.2 3.2-3.2s3.2 1.4 3.2 3.2c-.1 1.8-1.5 3.2-3.2 3.2zm0-4.9c-.9 0-1.7.8-1.7 1.7s.8 1.7 1.7 1.7 1.7-.8 1.7-1.7c-.1-.9-.8-1.7-1.7-1.7z"/></g><g><path d="m39 17.3v.2c-4.5 0-8.1 3.6-8.1 8.1h-.2c0-3.2-2.2-6.2-4.2-7.1-1.1-.6-2.5-1-3.9-1v-.2c4.5 0 8.1-3.6 8.1-8.1h.2c0 1.5.4 2.9 1.1 4.1 1.5 2.6 4.4 4 7 4z"/></g><g><path d="m98 87.3c0 5.6-21.4 10.2-47.8 10.2s-47.8-4.6-47.8-10.2c0-2.8 5.2-5.3 13.8-7.1.1.3.3.6.4.9 2.1 4.2 6.1 7.7 10.5 9.3.3.1.7.3 1.1.4 2 .6 4 1 6.1 1 9 0 16.8-6 19.2-14.5 8.9.1 17.2.8 24.1 1.8v4.2c0 3.4 2.4 6.2 5.4 6.2s5.4-2.8 5.4-6.2v-2c6 1.5 9.6 3.7 9.6 6z"/><g><g><path d="m51.8 75v.2c-2 10.5-13 16.9-23 13.6-.3-.1-.7-.2-1-.3-3.7-1.3-7.4-4.5-9.4-8.3-1.9-3.5-2.5-7.6-1.8-11.6 0-.1 0-.1 0-.2 1.5-7.9 8.2-13.5 15.5-14.3.6-.1 1.2-.1 1.8-.1 11.1-.4 20 9.8 17.9 21z"/></g></g><g><path d="m86.2 6.6v76.5c0 2.3-1.5 4.1-3.3 4.1s-3.3-1.8-3.3-4.1v-47.6l-29.3-12.1c-1.3-.5-1.3-2.3-.1-2.9l29.4-14.5c.2-2 1.6-3.5 3.2-3.5 1.9 0 3.4 1.9 3.4 4.1z"/></g></g></g></svg>