<svg id="Capa_1" enable-background="new 0 0 512 512" viewBox="0 0 512 512" xmlns="http://www.w3.org/2000/svg"><g><path d="m90 298h60.25v30h-60.25z"/><path d="m180.25 298h60.25v30h-60.25z"/><path d="m270.5 298h60.25v30h-60.25z"/><path d="m360.75 298h61.25v30h-61.25z"/><path d="m391 417.83v94.17h30v-94.17zm-300 0v94.17h30v-94.17zm120 0v94.17h30v-94.17zm60 0v94.17h30v-94.17zm120 0v94.17h30v-94.17zm106-259.83h-482c-8.28 0-15 6.72-15 15v25h512v-25c0-8.28-6.72-15-15-15zm-497 70v269c0 8.28 6.72 15 15 15h46v-109.17c0-8.28 6.72-15 15-15h60c8.28 0 15 6.72 15 15v109.17h30v-109.17c0-8.28 6.72-15 15-15h120c8.28 0 15 6.72 15 15v109.17h30v-109.17c0-8.28 6.72-15 15-15h60c8.28 0 15 6.72 15 15v109.17h46c8.28 0 15-6.72 15-15v-269zm452 115c0 8.29-6.72 15-15 15h-362c-8.28 0-15-6.71-15-15v-60c0-8.28 6.72-15 15-15h362c8.28 0 15 6.72 15 15zm-61 74.83v94.17h30v-94.17zm-120 0v94.17h30v-94.17zm-60 0v94.17h30v-94.17zm-120 0v94.17h30v-94.17zm300 0v94.17h30v-94.17zm-120 0v94.17h30v-94.17zm-60 0v94.17h30v-94.17z"/><path d="m436 64h-9.945c-1.841-5.813-5.43-12.802-12.464-18.267-9.161-7.119-19.072-7.696-22.61-7.733h-3.52c-3.381-21.5-22.031-38-44.461-38h-25c-8.28 0-15 6.72-15 15v49h-94v-49c0-8.28-6.72-15-15-15h-25c-22.43 0-41.08 16.5-44.46 38h-3.52c-2.93.021-14.754.44-24.867 9.632-5.718 5.197-8.739 11.246-10.341 16.368h-9.812c-8.229 0-15 6.771-15 15s6.771 15 15 15h9.777c1.51 4.828 4.304 10.486 9.48 15.513 10.446 10.145 23.133 10.476 25.763 10.487h3.52c.657 4.028 3.078 15.534 13.08 25.25 12.549 12.19 27.925 12.716 31.36 12.75h25.02c8.28 0 15-6.72 15-15v-49h94v49c0 8.28 6.72 15 15 15h25.02c3.435-.034 18.811-.56 31.36-12.75 10.002-9.716 12.423-21.222 13.08-25.25h3.52c2.456-.006 15.745-.281 26.36-11.057 4.821-4.895 7.461-10.302 8.908-14.943h9.752c8.229 0 15-6.771 15-15s-6.771-15-15-15z"/></g><g/><g/><g/><g/><g/><g/><g/><g/><g/><g/><g/><g/><g/><g/><g/></svg>