<svg height="512pt" viewBox="0 0 512 512" width="512pt" xmlns="http://www.w3.org/2000/svg"><path d="m76 229.515625c15.9375 14.269531 44.0625 14.269531 60 0 7.96875 7.132813 18.484375 11.484375 30 11.484375 24.8125 0 45-20.1875 45-45 0-19.554688-12.539062-36.238281-30-42.4375v-18.5625c0-33.867188-22.714844-62.230469-53.601562-71.511719 9.933593-19.996093 30.425781-33.488281 53.601562-33.488281 33.089844 0 60 26.910156 60 60v172.742188c-17.507812 40.140624-30 82.421874-30 123.394531 0 22.800781 2.007812 45.710937 5.6875 65.863281h138.625c3.679688-20.152344 5.6875-43.0625 5.6875-65.863281 0-71.710938-37.695312-147.652344-75-208.550781-5.03125 8.214843-10.050781 16.742187-15 25.453124v-113.039062c0-49.628906-40.371094-90-90-90-38.792969 0-72.6875 25.113281-84.949219 61.007812-36.617187 4.925782-66.050781 36.046876-66.050781 73.992188v18.5625c-17.460938 6.199219-30 22.882812-30 42.4375 0 24.8125 20.1875 45 45 45 11.515625 0 23.03125-4.351562 31-11.484375zm0 0"/><path d="m61 482h451v30h-451zm0 0"/><path d="m428.292969 452c19.945312-55.9375 23.394531-122.742188 21.902343-180.179688-23.550781 12.75-46.128906 25.824219-69.347656 42.171876 6.6875 25.390624 10.152344 49.414062 10.152344 72.144531 0 22.664062-2.046875 45.425781-5.570312 65.863281zm0 0"/><path d="m120.488281 271.820312c-1.496093 57.457032 1.960938 124.246094 21.90625 180.179688h44.179688c-3.523438-20.4375-5.574219-43.199219-5.574219-65.863281 0-22.460938 3.414062-46.203125 9.953125-71.265625-24.390625-17.253906-47.867187-30.816406-70.464844-43.050782zm0 0"/></svg>