<svg id="Layer_1" viewBox="0 0 1000 1000" xmlns="http://www.w3.org/2000/svg" data-name="Layer 1"><path d="m784.24 485c-29 12.36-60.5 18.34-92.56 18.34-72.79 0-148.6-30.87-205.8-88.08-72.41-72.46-103.67-175.82-80.88-265.46h45v46.79a248.18 248.18 0 0 0 3.2 39.82c-7.4 5.1-15 10.35-22.12 15.27a10 10 0 0 0 11.38 16.45l15.17-10.48a241.4 241.4 0 0 0 24.57 60.53c-6.36 5.53-12.37 10.77-17.57 15.31a10 10 0 1 0 13.16 15.06l15.2-13.25a247.35 247.35 0 0 0 28.74 34.48q8.58 8.58 17.84 16.2c-4.1 4.54-8 8.82-11.45 12.63a10 10 0 1 0 14.88 13.46c3.82-4.18 8.13-8.93 12.69-14a241.88 241.88 0 0 0 58.14 29.71c-5.21 7.32-10.34 14.48-15 20.94a10 10 0 1 0 16.17 11.74c5.86-8.12 12.44-17.31 19-26.55a246.73 246.73 0 0 0 61 7.61 113.41 113.41 0 0 1 89.24 43.48z"/><path d="m316.49 535.75h-125v-133.41c59.2 29.43 101.16 74.21 125 133.41z"/><path d="m808.5 555v91.58h-384.33v-100.83a10 10 0 0 0 -10-10h-76.23c-14.27-38.32-35.64-71.66-63.6-99.16-23.16-22.79-51-41.77-82.84-56.43v-230.36h193q-.87 3.67-1.61 7.38s0 0 0 0a8.1 8.1 0 0 0 -.2 1 .13.13 0 0 0 0 .06c-8.34 41.86-6.39 86.4 5.8 130.11 14.61 52.37 43.42 101.14 83.31 141 45.72 45.72 102 76.33 162.72 88.5a285.78 285.78 0 0 0 56 5.6c36.78 0 72.63-7.28 104.8-21.51a112.64 112.64 0 0 1 13.18 53.06z"/><path d="m354.93 555.75-11.34 90.86h-139.42l-11.34-90.86z"/><path d="m793.85 850.2c29.32 0 55.85-10.5 75.06-27.48s31.09-40.45 31.09-66.36h-800c0 51.83 47.53 93.84 106.15 93.84z"/><path d="m273.64 666.61a105.76 105.76 0 0 1 -49.44 68.2 26.74 26.74 0 0 0 -2.32 1.55h73.71a155.26 155.26 0 0 0 28.85-69.75z"/><path d="m726.35 666.61h-50.8a155.48 155.48 0 0 0 28.85 69.75h73.71a25.13 25.13 0 0 0 -2.31-1.55 105.77 105.77 0 0 1 -49.45-68.2z"/></svg>