<svg height="512" viewBox="0 0 512 512" width="512" xmlns="http://www.w3.org/2000/svg"><g id="Layer_23" data-name="Layer 23"><path d="m104 328h96v24h-96z"/><path d="m216 328h16v160h-16z"/><path d="m104 432h96v16h-96z"/><circle cx="152" cy="232" r="48"/><path d="m104 400h96v16h-96z"/><path d="m104 368h96v16h-96z"/><path d="m419.531 456a23.979 23.979 0 0 1 -22.769-16.406l-47.586-142.774a47.945 47.945 0 0 0 -45.539-32.82h-31.637v32h22.7a31.957 31.957 0 0 1 30.356 21.883l47.589 142.765a39.952 39.952 0 0 0 37.955 27.352h77.4v-32z"/><path d="m152 24a59 59 0 0 0 -45.973 21.883l-73.218 90.117h238.382l-73.218-90.117a59 59 0 0 0 -45.973-21.883z"/><path d="m72 328h16v160h-16z"/><path d="m48 312h208v-160h-208zm176-144h16v16h-16zm0 112h16v16h-16zm-72-112a64 64 0 1 1 -64 64 64.073 64.073 0 0 1 64-64zm-88 0h16v16h-16zm0 112h16v16h-16z"/><path d="m384 209.2 52.293-81.344a73.553 73.553 0 0 0 11.707-39.856 64 64 0 0 0 -128 0 73.553 73.553 0 0 0 11.707 39.859zm0-169.2a48 48 0 1 1 -48 48 48.052 48.052 0 0 1 48-48z"/><circle cx="384" cy="88" r="32"/></g></svg>