<svg height="512" viewBox="0 0 512 512" width="512" xmlns="http://www.w3.org/2000/svg"><g id="c"><path d="m428.9126 215.4456c13.8018 14.5879 18.5815 36.2014 11.2539 55.613h-22.7842c8.2222-17.4114 12.1572-36.4429 11.5303-55.613zm-20.2588-13.3782c1.0396.3862 2.0674.8132 3.0879 1.2661 3.5981 23.3591-.7383 47.1265-12.3628 67.7251h-36.3765c5.1216-28.2974 21.4214-53.0452 45.6514-68.9912zm-65.5933 24.7559c6.7871-12.5693 18.0635-21.7432 31.751-25.8311 3.8496-1.1499 7.7607-1.8428 11.6729-2.1167-21.2544 18.6035-35.2896 43.9458-39.7124 72.1831h-6.6978c-5.4883-14.5205-4.4717-30.4231 2.9863-44.2354zm-233.5957-2.7197 2.2549-3.7578c8.7139-14.5244 9.3945-32.2402 1.8193-47.3906-.9482-1.8975-2.6123-3.3408-4.626-4.0117-2.0117-.6709-4.21-.5146-6.1074.4346-12.1514 6.0762-25.7578 9.2881-39.3467 9.2881h-3.7451l10.668-17.7783c6.249-10.417 17.6777-16.8877 29.8271-16.8877 13.2598 0 25.1816 7.3682 31.1123 19.2285l2.4619 4.9229c8.8594 17.7197 8.0635 38.4404-2.1299 55.4268-3.9541 6.5908-4.0537 14.5186-.2676 21.2061 3.7871 6.6885 10.6367 10.6816 18.3232 10.6816h48.3076c20.9062 0 41.3496-3.9365 60.7617-11.7012l6.4287-2.5713-5.6367 15.915c-1.897 5.3574-5.1035 10.1416-9.2949 13.9502h-147.6707c-4.0564-15.895-1.6477-32.7759 6.8604-46.9551zm352.1826 207.8975h-411.2949c-10.3799 0-18.8242-8.4443-18.8242-18.8242s8.4443-18.8232 18.8242-18.8232h411.295c10.3799 0 18.8242 8.4443 18.8242 18.8232s-8.4443 18.8242-18.8242 18.8242zm0-53.6475h-411.2949c-10.3799 0-18.8242-8.4443-18.8242-18.8242s8.4443-18.8232 18.8242-18.8232h411.295c10.3799 0 18.8242 8.4443 18.8242 18.8232s-8.4443 18.8242-18.8242 18.8242zm0-53.6475h-411.2949c-10.3799 0-18.8242-8.4443-18.8242-18.8232s8.4443-18.8242 18.8242-18.8242h411.295c10.3799 0 18.8242 8.4443 18.8242 18.8242s-8.4443 18.8232-18.8242 18.8232z"/><path d="m283.7749 119.9039c8.7689-15.3147 3.4436-34.9091-11.8711-43.6788-15.3178-8.7697-34.9099-3.4436-43.6796 11.8711v.0008c-8.7689 15.3147-3.4436 34.9091 11.8718 43.6788 5.0025 2.8646 10.4599 4.2243 15.8492 4.2243 11.11 0 21.9246-5.7839 27.8296-16.0961z"/><path d="m256.2139 56.001c4.4033 0 7.9824-3.5615 7.999-7.9697l.0605-16c.0166-4.418-3.5518-8.0137-7.9697-8.0303h-.0312c-4.4033 0-7.9824 3.5615-7.999 7.9697l-.0605 16c-.0166 4.418 3.5518 8.0137 7.9697 8.0303z"/><path d="m211.6357 68.9033-13.8262-8.0527c-3.8193-2.2246-8.7158-.9316-10.9395 2.8867s-.9307 8.7158 2.8867 10.9395l13.8262 8.0527c1.2666.7373 2.6514 1.0879 4.0186 1.0879 2.7549 0 5.4346-1.4229 6.9209-3.9746 2.2236-3.8184.9307-8.7158-2.8867-10.9395z"/><path d="m193.5166 147.7637c1.3467 0 2.7129-.3408 3.9658-1.0576l13.8877-7.9473c3.835-2.1943 5.1641-7.082 2.9697-10.917-2.1943-3.833-7.0811-5.166-10.917-2.9697l-13.8877 7.9473c-3.835 2.1943-5.1641 7.082-2.9697 10.917 1.4775 2.5811 4.1748 4.0273 6.9512 4.0273z"/><path d="m255.7852 152c-4.4033 0-7.9824 3.5615-7.999 7.9697l-.0605 16c-.0166 4.418 3.5518 8.0137 7.9697 8.0303h.0312c4.4033 0 7.9824-3.5615 7.999-7.9697l.0605-16c.0166-4.418-3.5518-8.0137-7.9697-8.0303z"/><path d="m300.3643 139.0977 13.8252 8.0527c1.2666.7373 2.6514 1.0879 4.0186 1.0879 2.7539 0 5.4346-1.4229 6.9209-3.9746 2.2236-3.8174.9316-8.7158-2.8867-10.9395l-13.8252-8.0527c-3.8184-2.2217-8.7158-.9316-10.9395 2.8867-2.2236 3.8174-.9316 8.7158 2.8867 10.9395z"/><path d="m304.6113 84.1865c1.3467 0 2.7129-.3408 3.9658-1.0576l13.8867-7.9473c3.835-2.1943 5.1641-7.082 2.9697-10.917s-7.082-5.165-10.917-2.9697l-13.8867 7.9473c-3.835 2.1943-5.1641 7.082-2.9697 10.917 1.4775 2.582 4.1748 4.0273 6.9512 4.0273z"/><path d="m279.8506 62.3457c1.2539.7178 2.6201 1.0586 3.9678 1.0586 2.7754 0 5.4727-1.4453 6.9502-4.0254l3.9756-6.9424c2.1953-3.834.8672-8.7227-2.9668-10.918-3.8379-2.1973-8.7236-.8672-10.918 2.9668l-3.9756 6.9424c-2.1953 3.834-.8672 8.7227 2.9668 10.918z"/><path d="m227.835 63.6045c1.3662 0 2.751-.3506 4.0166-1.0869 3.8184-2.2227 5.1123-7.1201 2.8896-10.9385l-4.0244-6.9141c-2.2236-3.8184-7.1201-5.1113-10.9385-2.8896-3.8184 2.2227-5.1123 7.1201-2.8896 10.9385l4.0244 6.9141c1.4863 2.5527 4.166 3.9766 6.9219 3.9766z"/><path d="m192.0283 112.2285 8-.0283c4.418-.0156 7.9873-3.6104 7.9717-8.0283-.0156-4.4092-3.5938-7.9717-7.999-7.9717h-.0293l-8 .0283c-4.418.0156-7.9873 3.6104-7.9717 8.0283.0156 4.4092 3.5938 7.9717 7.999 7.9717z"/><path d="m232.1484 145.6553c-3.8379-2.1973-8.7236-.8672-10.918 2.9668l-3.9756 6.9424c-2.1953 3.834-.8672 8.7227 2.9668 10.918 1.2539.7178 2.6201 1.0586 3.9678 1.0586 2.7754 0 5.4727-1.4453 6.9502-4.0254l3.9756-6.9424c2.1953-3.834.8672-8.7227-2.9668-10.918z"/><path d="m281.2832 163.3369c1.4863 2.5518 4.167 3.9756 6.9219 3.9756 1.3662 0 2.751-.3506 4.0176-1.0869 3.8184-2.2236 5.1113-7.1211 2.8887-10.9395l-4.0254-6.9141c-2.2236-3.8184-7.1201-5.1113-10.9395-2.8887-3.8184 2.2236-5.1113 7.1211-2.8887 10.9395z"/><path d="m320 95.7725h-.0293l-8 .0283c-4.418.0156-7.9873 3.6104-7.9717 8.0283.0156 4.4092 3.5938 7.9717 7.999 7.9717h.0293l8-.0283c4.418-.0156 7.9873-3.6104 7.9717-8.0283-.0156-4.4092-3.5938-7.9717-7.999-7.9717z"/></g></svg>