<svg id="Layer_1" viewBox="0 0 64 64" xmlns="http://www.w3.org/2000/svg" data-name="Layer 1"><path d="m15.2 24.819c.197.208.462.314.728.314.246 0 .493-.09.686-.272.402-.378.42-1.011.042-1.414-.069-.073-1.669-1.818.069-4.113 2.199-2.902.916-5.646-.069-6.692-.376-.4-1.002-.417-1.404-.045-.403.373-.427 1.004-.058 1.41.171.188 1.619 1.898-.063 4.119-2.199 2.902-.917 5.647.069 6.693z"/><path d="m9.408 24.818c.197.209.462.314.728.314.246 0 .493-.09.686-.272.402-.379.421-1.012.042-1.414-.069-.073-1.669-1.819.069-4.113 2.199-2.902.916-5.646-.069-6.692-.376-.4-1.002-.417-1.404-.045-.403.373-.427 1.004-.058 1.41.171.188 1.619 1.898-.063 4.119-2.198 2.902-.916 5.647.069 6.692z"/><path d="m53.136 24.818c.197.209.462.314.728.314.246 0 .493-.09.686-.272.402-.379.421-1.012.042-1.414-.069-.073-1.669-1.819.069-4.113 2.199-2.902.916-5.646-.069-6.692-.376-.4-1.001-.417-1.404-.045-.403.373-.427 1.004-.058 1.41.171.188 1.619 1.898-.063 4.119-2.198 2.902-.916 5.647.069 6.692z"/><path d="m47.345 24.818c.197.209.462.314.728.314.246 0 .493-.09.686-.272.402-.379.421-1.012.042-1.414-.069-.073-1.669-1.819.069-4.113 2.199-2.902.917-5.647-.069-6.692-.376-.4-1.001-.417-1.404-.045-.403.373-.427 1.004-.057 1.41.17.188 1.619 1.898-.064 4.119-2.198 2.902-.916 5.647.069 6.692z"/><path d="m38.468 10.636c0-1.043-.249-2.028-.68-2.907-1.414.356-2.718.839-3.903 1.396 1.94 1.281 3.391 2.603 4.321 3.552.166-.693.263-1.383.263-2.041z"/><path d="m21.16 33.371h-15.955v4.776h53.59v-4.776h-15.955z"/><path d="m25.196 10.636c0 .657.097 1.346.262 2.037 1.809-1.853 5.603-5.121 11.094-6.695-1.204-1.22-2.874-1.978-4.719-1.978-3.659 0-6.636 2.977-6.636 6.636z"/><path d="m26.204 14.811c1.215 2.633 3.375 4.843 5.628 4.843s4.413-2.21 5.627-4.843c-.763-.862-2.704-2.862-5.617-4.605-2.937 1.753-4.877 3.746-5.639 4.604z"/><path d="m5.205 60h5.117v-14.086c0-.552.448-1 1-1s1 .448 1 1v14.086h6.271v-14.086c0-.552.448-1 1-1s1 .448 1 1v14.086h6.271v-14.086c0-.552.448-1 1-1s1 .448 1 1v14.086h6.271v-14.086c0-.552.448-1 1-1s1 .448 1 1v14.086h6.271v-14.086c0-.552.448-1 1-1s1 .448 1 1v14.086h6.271v-14.086c0-.552.448-1 1-1s1 .448 1 1v14.086h5.117v-19.853h-53.589z"/><path d="m22.161 31.371h19.679c-.008-.67-.084-1.339-.226-1.988-.401-1.835-1.318-3.51-2.653-4.845-1.863-1.863-4.335-2.889-6.96-2.889-4.591 0-8.635 3.252-9.614 7.734-.142.649-.217 1.317-.226 1.988z"/></svg>