<svg id="Layer_1" enable-background="new 0 0 512.288 512.288" height="512" viewBox="0 0 512.288 512.288" width="512" xmlns="http://www.w3.org/2000/svg"><g><path d="m418.22 63.521c-42.072-13.933-92.183-22.109-144.906-23.581v41.788c41.503 1.351 80.35 7.637 114.395 18.516z"/><path d="m398.585 140.394-31.959 38.467c12.891 8.519 22.039 18.566 27.029 29.613 24.774-5.905 46.333-12.722 67.836-22.886-11.117-17.013-34.305-33.544-62.906-45.194z"/><path d="m.004 330.417v53.797c-.64 36.835 83.25 67.544 127.584 75.665v-77.203c-45.639-9.503-94.337-25.675-127.584-52.259z"/><path d="m385.019 382.57v77.202c44.357-8.202 127.84-38.789 127.266-75.559v-53.836c-33.165 26.509-81.746 42.676-127.266 52.193z"/><path d="m386.237 244.887c-39.544 8.057-84.501 12.345-130.214 12.35-98.762-.307-198.881-19.15-256.019-62.965v76.238c0 20.236 25.884 42.604 69.24 59.834 49.968 19.858 116.301 30.794 186.779 30.794 70.495 0 136.873-10.937 186.907-30.797 43.428-17.238 69.355-39.604 69.355-59.831v-76.276c-32.492 25.7-81.03 41.464-126.048 50.653zm-241.638 67.333c-9.395 0-17.011-7.616-17.011-17.011.896-22.565 33.13-22.558 34.022 0 0 9.395-7.616 17.011-17.011 17.011zm111.381 11.411c-9.395 0-17.011-7.616-17.011-17.011.896-22.565 33.129-22.558 34.022 0 0 9.395-7.616 17.011-17.011 17.011zm112.028-11.411c-9.395 0-17.011-7.616-17.011-17.011.896-22.565 33.129-22.558 34.022 0 0 9.395-7.616 17.011-17.011 17.011z"/><path d="m161.61 465.965c24.54 3.585 50.569 5.752 77.402 6.397v-77.416c-26.634-.643-52.639-2.784-77.402-6.336z"/><path d="m273.034 472.362c27.032-.65 53.255-2.841 77.963-6.472v-77.356c-24.936 3.598-51.132 5.765-77.963 6.412z"/><path d="m364.001 128.781c-27.503-7.392-58.429-11.857-90.686-13.022v36.267c22.312 1.35 43.4 5.341 61.682 11.665z"/><path d="m27.519 172.398c11.774-22.17 32.979-41.203 61.374-56.045l-33.396-37.32c-54.175 27.996-77.873 59.064-27.978 93.365z"/><path d="m154.844 215.58c62.792 10.169 140.087 10.14 202.852-.072-35.798-39.696-167.299-39.584-202.852.072z"/><path d="m490.69 168.037c44.519-34.373 13.93-65.571-39.1-91.441l-30.372 36.557c32.097 14.743 55.681 33.419 69.472 54.884z"/><path d="m57.423 188.683c19.617 8.554 38.916 14.554 61.482 19.897 4.886-10.881 13.798-20.797 26.351-29.24l-32.855-36.716c-26.752 12.527-45.764 28.546-54.978 46.059z"/><path d="m239.292 81.708v-41.782c-55.062 1.487-107.278 10.289-150.471 25.327l33.012 36.891c33.439-11.799 73.354-18.969 117.459-20.436z"/><path d="m239.292 152.027v-36.281c-34.007 1.186-65.345 5.951-92.714 14.051l30.493 34.076c18.406-6.431 39.692-10.483 62.221-11.846z"/></g></svg>