<svg id="Layer_3" enable-background="new 0 0 64 64" height="512" viewBox="0 0 64 64" width="512" xmlns="http://www.w3.org/2000/svg"><g><path d="m14.97 7h-2.972v1.189c0 5.143-1.78 10.146-4.999 14.147v1.536c4.851-4.325 7.704-10.368 7.971-16.872z"/><path d="m6.999 28.415v8.584h3.95c-.235-3.224-1.591-6.226-3.901-8.535z"/><path d="m9.998 7h-2.999v11.855c1.94-3.201 2.999-6.89 2.999-10.665z"/><path d="m12.949 36.999h38.099c.088-1.378.354-2.719.79-4h-39.678c.436 1.281.702 2.622.789 4z"/><path d="m47.027 7h-30.057c-.051 1.355-.207 2.691-.461 4h30.98c-.255-1.309-.411-2.645-.462-4z"/><path d="m53.999 8.189c0 3.776 1.06 7.465 3.001 10.667v-11.856h-3.001z"/><path d="m56.508 26.076c-4.19-3.433-7.138-7.993-8.552-13.077h-31.914c-1.414 5.084-4.362 9.644-8.552 13.077l.974.974c1.175 1.175 2.126 2.51 2.857 3.95h41.356c.732-1.44 1.683-2.775 2.857-3.95z"/><path d="m51.999 7h-2.972c.267 6.506 3.122 12.548 7.973 16.873v-1.536c-3.221-4.002-5.001-9.005-5.001-14.148z"/><path d="m2.998 2.999v38h58.001v-38h-58.001zm56.002 35c0 .553-.448 1-1 1h-6.001-.001-45.999c-.553 0-1-.447-1-1v-31.999c0-.553.447-1 1-1h52.001c.552 0 1 .447 1 1z"/><path d="m53.048 36.999h3.952v-8.586l-.051.051c-2.309 2.309-3.666 5.31-3.901 8.535z"/><path d="m21.998 55h-3.999c-.552 0-1 .448-1 1v5h6l-.001-5c0-.552-.448-1-1-1z"/><path d="m24.814 54.999c.112.314.184.648.184 1l.001 3h2v-3c0-.353.072-.686.184-1z"/><path d="m28.999 48c0-.552-.448-1-1-1h-3.999c-.552 0-1 .448-1 1v5h5.999z"/><path d="m33.998 55h-3.999c-.552 0-1 .448-1 1v5h6l-.001-5c0-.552-.448-1-1-1z"/><path d="m12.815 54.999c.112.314.184.648.184 1v3h2v-3c0-.353.072-.686.184-1z"/><path d="m16.998 48c0-.552-.448-1-1-1h-3.999c-.552 0-1 .448-1 1l.001 5h6z"/><path d="m9.999 55h-3.999c-.552 0-1 .448-1 1v5h5.999v-5c0-.552-.448-1-1-1z"/><path d="m52.998 48c0-.552-.448-1-1-1h-3.999c-.552 0-1 .448-1 1v5h6z"/><path d="m57.998 55h-3.999c-.552 0-1 .448-1 1v5h6l-.001-5c0-.552-.448-1-1-1z"/><path d="m36.814 54.999c.112.314.184.648.184 1l.001 3h2v-3c0-.353.072-.686.184-1z"/><path d="m48.814 54.999c.112.314.184.648.184 1l.001 3h2v-3c0-.353.072-.686.184-1z"/><path d="m45.998 55h-3.999c-.552 0-1 .448-1 1v5h6l-.001-5c0-.552-.448-1-1-1z"/><path d="m40.998 48c0-.552-.448-1-1-1h-3.999c-.552 0-1 .448-1 1v5h6z"/></g></svg>