<svg clip-rule="evenodd" fill-rule="evenodd" height="512" image-rendering="optimizeQuality" shape-rendering="geometricPrecision" text-rendering="geometricPrecision" viewBox="0 0 18062 18062" width="512" xmlns="http://www.w3.org/2000/svg"><g id="Layer_x0020_1"><path d="m17492 18056h-16922c-169 0-306-137-306-306v-1323c0-170 137-307 306-307h16922c169 0 307 137 307 307v1323c0 169-138 306-307 306z"/><path d="m1329 15815v-6008c0-1667 529-3257 1530-4596 836-1119 1978-2001 3260-2531 143 351 341 683 558 991 57 80 116 160 176 239-1071 400-2025 1092-2739 1988-882 1105-1371 2492-1372 3907v2 2 15 5991zm6451-3635v-154c-3-695 564-1259 1257-1259 694 0 1258 564 1258 1258v155zm-727-8016c402 491 853 950 1295 1394l165 165c-838 2290-2992 3864-5460 3928 64-2503 1668-4670 4000-5487zm1711 1763c83 40 174 61 267 61 94 0 185-21 267-61 408 1050 1098 1984 1985 2684 853 673 1836 1105 2887 1272-758 370-1281 1149-1281 2047v3885h-3697v-768h2818c85 0 154-69 154-154 0-14-4-32-6-46l-422-2538c-12-75-77-129-152-129h-980v-155c0-811-621-1481-1412-1558v-331c0-85-69-154-155-154-85 0-154 69-154 154v331c-791 77-1412 747-1412 1558v155h-980c-76 0-140 54-152 129l-426 2559c-7 44 6 90 35 125 29 34 72 54 118 54h2817v768h-3710v-3885c0-898-523-1677-1280-2047 1050-167 2033-599 2886-1272 887-700 1578-1634 1985-2684zm274 8812h-1-2790l375-2251h1003 2824 1004l374 2251zm5972-4779h2v5855h-1815v-3885c0-957 694-1779 1637-1940zm-5461-4237 165-165c442-443 894-903 1295-1394 2333 817 3936 2984 4001 5487-2469-64-4623-1638-5461-3928zm-4684 10092h-1815v-5855h2l176 30c943 161 1637 983 1637 1940zm6345-11905c60-79 118-158 175-239 217-308 415-640 558-991 1283 530 2424 1412 3260 2531 1001 1339 1530 2929 1530 4596v6008h-1413v-6008-4c-1-1414-490-2800-1371-3905-715-896-1669-1588-2739-1988z"/><path d="m9031 5683c-78 0-157-30-217-89-1289-1289-2622-2622-2622-4015 0-868 706-1573 1573-1573 606 0 977 248 1266 652 289-404 660-652 1266-652 867 0 1573 705 1573 1573 0 1393-1333 2726-2622 4015-60 59-138 89-217 89z"/><path d="m2633 2666h-2100c-169 0-307-137-307-306v-2048c0-169 138-306 307-306h2100c170 0 307 137 307 306v2048c0 169-137 306-307 306z"/><path d="m2157 5069h-1147c-86 0-167-35-225-98-58-62-87-146-81-231l130-1769h1499l130 1769c6 85-24 169-82 231-58 63-139 98-224 98z"/><path d="m17529 2666h-2100c-169 0-307-137-307-306v-1024c0-169 138-306 307-306h2100c169 0 307 137 307 306v1024c0 169-138 306-307 306z"/><path d="m17053 5069h-1148c-85 0-166-35-224-98-58-62-88-146-81-231l130-1769h1498l130 1769c7 85-23 169-81 231-58 63-139 98-224 98z"/><path d="m15429 1643c-169 0-307-138-307-307v-1024c0-169 138-306 307-306s307 137 307 306v1024c-1 169-138 307-307 307z"/><path d="m16479 1643c-169 0-307-138-307-307v-1024c0-169 138-306 307-306s307 137 307 306v1024c0 169-138 307-307 307z"/><path d="m17529 1643c-169 0-306-138-306-307v-1024c0-169 137-306 306-306 170 0 307 137 307 306v1024c0 169-138 307-307 307z"/></g></svg>